<svg width="192" height="192" viewBox="0 0 192 192" fill="none" xmlns="http://www.w3.org/2000/svg">
  <rect width="192" height="192" rx="42" fill="#10D39B"/>
  <rect x="28" y="28" width="136" height="136" rx="28" fill="#06100D"/>
  <path d="M61 101.5C61 77.4 76.7 61 98.2 61C112 61 123.3 67.4 129.6 78.4L113.6 87.6C110.5 81.8 105.1 78.4 98.2 78.4C86.7 78.4 79.5 87.5 79.5 101.5C79.5 115.5 86.7 124.6 98.2 124.6C105.2 124.6 110.8 121.1 114 115.2L130 124.4C123.7 135.5 112.1 142 98.2 142C76.7 142 61 125.6 61 101.5Z" fill="#EFFFFA"/>
</svg>
